<?xml version="1.0" encoding="utf-8"?>
<!-- Generator: Adobe Illustrator 16.2.0, SVG Export Plug-In . SVG Version: 6.00 Build 0)  -->
<!DOCTYPE svg PUBLIC "-//W3C//DTD SVG 1.1//EN" "http://www.w3.org/Graphics/SVG/1.1/DTD/svg11.dtd">
<svg version="1.1" id="Layer_1" xmlns="http://www.w3.org/2000/svg" xmlns:xlink="http://www.w3.org/1999/xlink" x="0px" y="0px"
	 width="112.473px" height="99.852px" viewBox="0 0 112.473 99.852" enable-background="new 0 0 112.473 99.852"
	 xml:space="preserve">
<g>
	<g>
		<path fill-rule="evenodd" clip-rule="evenodd" fill="#073D77" d="M43.179,9.339c-0.073,0.075-0.162,0.134-0.254,0.188
			c0,0.022,0,0.042,0,0.067c0.112,0.037,0.062,0.012,0.127,0.061c0.042,0,0.084,0,0.127,0c0-0.042,0-0.085,0-0.128
			C43.234,9.419,43.234,9.448,43.179,9.339z"/>
		<path fill-rule="evenodd" clip-rule="evenodd" fill="#073D77" d="M53.609,14.428c0,0.061,0,0.125,0,0.188
			c-0.138,0.082-0.417,0.151-0.572,0.255c0.043,0,0.084,0,0.127,0c0.122,0.067,0.279,0.002,0.445,0.128
			c-0.05,0.064-0.021,0.019-0.063,0.127c-0.261,0.089-0.722,0.069-1.082,0.063c-0.424-0.263-1.83,0.015-2.162,0
			c-0.564-0.023-1.783,0.102-2.162,0.254c-0.767,0.311-1.199,0.723-2.035,0.255c0-0.044,0-0.086,0-0.128
			c-0.04-0.024-0.231,0.107-0.319,0.065c-0.048-0.069-0.038-0.061-0.063-0.193c1.329-0.861,2.63-1.351,4.643-1.398
			c0.042,0.084,0.085,0.168,0.127,0.253c0.123-0.065,0.286-0.296,0.382-0.317c0.275-0.062,0.839,0.27,1.083,0.317
			c0.126-0.02,0.254-0.042,0.38-0.063C52.643,14.312,53.213,14.396,53.609,14.428z"/>
		<path fill-rule="evenodd" clip-rule="evenodd" fill="#073D77" d="M50.621,14.553c-0.092,0.068-0.25,0.101-0.382,0.128
			c0,0.02,0,0.044,0,0.063c0.063,0,0.126,0,0.19,0c0.133-0.09,0.227-0.039,0.319-0.191C50.704,14.553,50.662,14.553,50.621,14.553z"
			/>
		<path fill-rule="evenodd" clip-rule="evenodd" fill="#073D77" d="M50.875,14.553c0.151,0.145,0.023,0.069,0.254,0.063
			c0-0.02,0-0.042,0-0.063C51.044,14.553,50.959,14.553,50.875,14.553z"/>
		<path fill-rule="evenodd" clip-rule="evenodd" fill="#073D77" d="M54.055,14.745c0.186,0.111,0.283,0.258,0.445,0.382
			c0,0.022,0,0.042,0,0.063c-0.042,0-0.084,0-0.127,0c-0.173-0.149-0.029-0.045-0.318,0c-0.089-0.178-0.18-0.142-0.317-0.253
			c0.022,0,0.042,0,0.063,0C53.875,14.864,53.98,14.818,54.055,14.745z"/>
		<path fill-rule="evenodd" clip-rule="evenodd" fill="#073D77" d="M40.953,14.872c0.063,0,0.126,0,0.19,0
			c0.084,0.149,0.169,0.297,0.253,0.445c0.208-0.051,0.248-0.103,0.511-0.127c0.051,0.115,0.107,0.232,0.19,0.317
			c0.106-0.164,0.138-0.21,0.381-0.253c0,0.021,0,0.043,0,0.063c0.021,0,0.043,0,0.063,0c0.03,0.55,0.263,0.924,0.384,1.4
			c-0.352-0.041-0.193-0.141-0.384-0.255c-0.281-0.169-1.016-0.193-1.334-0.317c0,0.021,0,0.042,0,0.063
			c0.08,0.042,0.131,0.07,0.19,0.126c-0.084,0-0.169,0-0.253,0c-0.082,0.046-0.207-0.023-0.38-0.062
			c0.015-0.212,0.022-0.104,0-0.317c-0.18,0.049-0.276,0.067-0.384-0.128c0.19-0.083,0.332-0.154,0.446-0.319
			c-0.136-0.157-0.18-0.17-0.062-0.253C40.831,15.082,40.893,15.073,40.953,14.872z"/>
		<path fill-rule="evenodd" clip-rule="evenodd" fill="#073D77" d="M54.5,14.937c0.063,0,0.127,0,0.19,0c0,0.063,0,0.127,0,0.19
			c-0.063,0-0.127,0-0.19,0C54.5,15.063,54.5,15,54.5,14.937z"/>
		<path fill-rule="evenodd" clip-rule="evenodd" fill="#073D77" d="M54.818,15c0.05,0.064,0.023,0.019,0.063,0.127
			c-0.021,0-0.042,0-0.063,0C54.818,15.084,54.818,15.041,54.818,15z"/>
		<path fill-rule="evenodd" clip-rule="evenodd" fill="#073D77" d="M40.189,15.891c0.051,0.063,0.022,0.014,0.063,0.126
			c-0.021,0-0.042,0-0.063,0C40.189,15.976,40.189,15.934,40.189,15.891z"/>
		<path fill-rule="evenodd" clip-rule="evenodd" fill="#073D77" d="M50.685,16.717c0.518,0.063,1.373,0.651,1.463,1.146
			c-0.053,0.076-0.05,0.106-0.063,0.254c-0.217,0.136-0.299,0.193-0.701,0.19c-0.279,0.188-0.743,0.097-1.081,0.063
			c-0.125-0.197-0.184-0.217-0.19-0.573c-0.138-0.187-0.051-0.566,0.063-0.698C50.345,16.957,50.536,16.875,50.685,16.717z"/>
		<path fill-rule="evenodd" clip-rule="evenodd" fill="#073D77" d="M49.412,18.053c-0.29,0.049-0.833,0.147-1.081,0
			c-0.193-0.061-0.302-0.145-0.382-0.318c-0.05-0.074-0.05-0.107-0.063-0.255c0.181-0.143,0.263-0.369,0.445-0.508
			c0.235-0.199,0.589-0.114,0.827,0c-0.193,0.195-0.3,0.169-0.318,0.571C49.083,17.656,49.373,17.701,49.412,18.053z"/>
		<path fill-rule="evenodd" clip-rule="evenodd" fill="#073D77" d="M70.847,18.37c0.053,0.207-0.031,0.096,0.127,0.19
			c0-0.041,0-0.084,0-0.125c0.021,0,0.042,0,0.063,0c0-0.023,0-0.043,0-0.065C70.974,18.37,70.91,18.37,70.847,18.37z"/>
		<path fill-rule="evenodd" clip-rule="evenodd" fill="#073D77" d="M47.439,18.944c0.471,0.122,1.273,0.005,1.782,0.19
			c-0.054,0.197-0.124,0.172-0.063,0.318c0.082,0.156-0.027,0.041,0.127,0.125c0.041-0.099,0.141-0.302,0.19-0.19
			c0.347-0.112,0.817-0.016,1.146,0.065c0,0.02,0,0.041,0,0.062c-0.023,0-0.044,0-0.065,0c-0.332,0.227-0.938,0.134-1.398,0.127
			c0,0.021,0,0.043,0,0.063c0.042,0,0.084,0,0.127,0c0.073,0.1,0.068,0.054,0.127,0.192c-0.021,0-0.042,0-0.063,0
			c-0.068,0.047-0.061,0.039-0.19,0.063c-0.266-0.159-1.353-0.396-1.845-0.507c-0.039-0.11-0.056-0.201-0.063-0.382
			C47.33,19.029,47.382,19.001,47.439,18.944z"/>
		<path fill-rule="evenodd" clip-rule="evenodd" fill="#073D77" d="M42.67,19.007c-0.021,0.063-0.042,0.127-0.064,0.19
			c0.042,0,0.085,0,0.127,0C42.71,19.066,42.718,19.074,42.67,19.007z"/>
		<path fill-rule="evenodd" clip-rule="evenodd" fill="#073D77" d="M52.147,19.134c0.105,0,0.211,0,0.317,0c0,0.042,0,0.085,0,0.127
			c0.017,0.061,0.05,0.023,0,0.063c-0.309,0.276-0.735,0.398-1.018,0.698c-0.111-0.041-0.062-0.01-0.126-0.063
			c-0.021,0-0.042,0-0.063,0c0.044-0.101,0.155-0.184,0.19-0.255c0.033-0.067-0.146-0.042-0.063-0.19
			c0.021-0.062,0.042-0.127,0.063-0.19C51.742,19.325,51.984,19.269,52.147,19.134z"/>
		<path fill-rule="evenodd" clip-rule="evenodd" fill="#073D77" d="M40.5,25.431c-0.003-0.002-0.003-0.002-0.006-0.006
			c-0.117-0.009-0.222-0.077-0.255-0.226c-0.011-0.05-0.02-0.1-0.026-0.151c-0.061-0.117-0.103-0.245-0.125-0.374
			c0-0.02,0.002-0.042,0.003-0.063c0.007,0.003,0.014,0,0.021,0c-0.113-0.434,0.101-0.879,0.379-1.246
			c0.027-0.121,0.066-0.237,0.112-0.349c-0.239,0.456-0.483,0.908-0.636,1.404c-0.011,0.069-0.021,0.143-0.027,0.217
			c0.074,0.374,0.252,0.7,0.58,0.836C40.512,25.458,40.507,25.446,40.5,25.431z"/>
		<path fill-rule="evenodd" clip-rule="evenodd" fill="#073D77" d="M43.179,18.56c-0.25-0.407-0.755-0.432-1.145-0.698
			c-0.438,0.024-0.558,0.206-0.828,0.38c0.018,0.465,0.227,0.602,0.574,0.573v0.064h0.063c-0.103,0.222-0.304,0.273-0.574,0.318
			c0.061,0.271,0.145,0.443,0.255,0.636c0.148-0.014,0.18-0.014,0.255-0.063c0.14,0.074,0.094,0.092,0.19,0.19v0.063
			c0.048-0.067,0.039-0.059,0.063-0.19h0.382c-0.112,0.209-0.249,0.422-0.405,0.617c0.032,0.034,0.058,0.073,0.074,0.118
			c-0.287,0.4-0.571,0.807-0.844,1.217c-0.21,0.257-0.417,0.519-0.593,0.803c-0.088,0.139,0.133,0.268,0.22,0.127
			c0.289-0.465,0.659-0.87,0.997-1.298c0.042-0.042,0.086-0.083,0.13-0.127c0.058-0.097,0.115-0.194,0.172-0.29
			c0.004-0.007,0.01-0.014,0.015-0.021c0.006-0.011,0.01-0.018,0.014-0.027c0.003-0.005,0.004-0.009,0.006-0.013
			c0.051-0.024,0.072-0.072,0.071-0.119c0.03-0.053,0.059-0.104,0.089-0.156c0.459-0.495,0.983-1.251,1.134-1.595
			c0.095-0.213,0.017-0.358,0.128-0.51v-0.125C43.358,18.446,43.333,18.479,43.179,18.56z"/>
		<path fill-rule="evenodd" clip-rule="evenodd" fill="#073D77" d="M66.012,26.321c-0.07,0.097-0.068,0.055-0.125,0.19
			C66.111,26.476,66.105,26.469,66.012,26.321z"/>
		<path fill="#073D77" d="M47.655,32.259c0.068-0.003,0.133-0.004,0.195-0.011C47.991,31.878,47.068,32.262,47.655,32.259z"/>
		<path fill="#073D77" d="M69.476,38.99c-0.063,0.042-0.127,0.085-0.19,0.127c0,0.269-0.014,0.432-0.127,0.574
			c0.005,0.571,0.486,0.563,0.826,0.827c-0.098,0.098-0.26,0.185-0.382,0.254c0.266,0.465,1.183,0.244,1.59,0.126
			c-0.064,0.052-0.014,0.024-0.127,0.064v0.127c1.53,0.323,3.166,0.506,4.39,1.144c-0.468,1.315-4.377,2.434-7.29,3.411
			c-0.171,0.185-0.348,0.361-0.529,0.534h0.123c-0.11,0.3-0.37,0.6-0.696,0.899c-0.028,0.072-0.089,0.136-0.188,0.164
			c-0.686,0.585-1.563,1.153-1.979,1.672c-0.259,0.175-0.686,0.414-0.952,0.507c-0.6-0.112-2.67,1.329-3.309,1.718
			c-1.96,1.193-3.919,2.899-5.724,4.008c-1.238,0.391-4.521,1.22-5.152,2.479c-0.731-0.168-1.83-2.494-2.291-2.99
			c0.047-0.683,0.587-2.641,1.074-3.23c0.072,0.014,0.914-0.114,1.435-0.203c0.935-0.535,2.12-0.555,3.195-0.633
			c0.29-0.448,0.625-0.869,0.961-1.28c0.283-0.346,0.558-0.7,0.851-1.035c0.209-0.241,0.531-0.522,0.64-0.83
			c0.051-0.145,0.167-0.21,0.289-0.217c0.021-0.021,0.047-0.042,0.077-0.061c0.874-0.495,1.816-0.74,2.782-0.898
			c0.011-0.019,0.022-0.039,0.038-0.056c0.385-0.468,0.815-0.89,1.263-1.298c-0.912,0.075-1.827,0.121-2.742,0.066
			c-0.041,0.02-0.081,0.04-0.121,0.06c-0.19,0.116-0.381,0.235-0.568,0.358v0.033c-0.001,0.302-0.347,0.383-0.529,0.238
			c-0.197-0.027-0.344-0.285-0.238-0.486c0.045-0.086,0.095-0.178,0.145-0.275c0.014-0.308,0.036-0.613,0.07-0.921
			c-0.211,0.047-0.426,0.085-0.641,0.112c-0.773,0.734-1.725,2.169-2.001,2.671c-0.291-0.023-0.329-0.085-0.509-0.191
			c0.003-0.903,0.414-1.981,0.254-2.733c0,0,0.228-1.103,0.255-1.147c0.037-0.855-0.444-0.964-1.144-0.953v-0.19
			c3.164-1.483,5.943-2.768,8.904-4.645c0.039-0.362,0.073-1.142-0.189-1.398c0.018-0.133,0.49-1.648,0.954-1.209
			c1.09-0.047,1.721-2.783,1.906-3.879c-0.186-0.169-0.357-0.372-0.571-0.511c0-1.25-0.942-4.568-0.254-5.66
			c0.022-1.311,0.117-2.324-0.701-2.798c0.033-0.459,0.249-0.981,0-1.337c-0.122-0.418-0.516-0.439-0.636-0.954
			c0.315-0.083,0.838-0.113,1.21-0.307c-0.019-0.181,0.006-0.368,0.06-0.551c-0.494-0.546,0.557-1.336,1.234-1.624
			c0.014-0.01,0.027-0.018,0.041-0.025c0.256-0.518,1.9-1.001,2.259-0.421c0.474,0.208,0.819,0.589,0.783,1.157
			c2.615,2.107-1.037,6.701-2.484,8.251c-0.034,0.183-0.152,0.309-0.354,0.385c-0.163,0.232-0.235,0.737-0.406,0.906
			c0.004,0,0.006-0.002,0.01-0.006c-0.068,0.097-0.151,0.18-0.252,0.25c0.043,0.246,0.04,0.246,0.255,0.317
			c0.145,0.077,0.461-0.156,0.572-0.317c0.48,0.045,0.907,0.19,1.463,0.19c0.163,0.578,0.172,1.403,0.699,1.782
			c-0.1,0.479-0.498,0.907-0.638,1.399c-0.173,1.574-0.659,3.555,0.319,5.025c0.063,0.021,0.126,0.042,0.191,0.063V36
			c0.222,0.512,0.841,0.603,1.145,1.018c0.37,0.021,1.152-0.069,1.463-0.316c0.395,0.075,0.456,0.725,0.699,1.016
			c0.127-0.02,0.254-0.041,0.382-0.063c0.169,0.3,0.327,0.343,0.509,0.572c1.047,0.061,2.548-0.785,2.988-1.779v-0.51
			c0.414-1.431,1.211-2.397,2.293-3.435c-0.061-0.388-0.34-0.837-0.574-1.079c0.096-0.78,1.003-1.196,0.191-2.1
			c0.075-0.358,0.326-0.328,0.444-0.573v-0.38c0.147-0.284,0.564-0.266,0.7-0.637c0.603-0.961,0.063-3.88,0.063-4.96
			c-0.665-0.626-1.45-1.282-2.227-1.783c0.003-0.172,0.003-0.291,0.063-0.38c0.034-0.792,0.159-1.514-0.507-1.655
			c0.169-1.169-0.133-4.017-1.501-4.542c-1.059-0.405-2.052-3.431-1.172-4.297c-0.015-0.523-1.111-2.298-1.461-2.801
			c-0.146-0.156-0.384-0.071-0.574-0.189c-0.169-0.19-0.339-0.382-0.508-0.573l-0.381-0.064c-0.045-0.125-0.087-0.253-0.129-0.381
			c-0.44-0.562-1.1-0.774-1.717-1.081c-0.188-0.559-0.301-1.25-0.763-1.528h-0.255c-0.814-0.655-1.852-1.522-3.053-1.398v0.253
			c-0.344-0.027-0.331-0.084-0.319-0.444c-0.132-0.027-0.348-0.06-0.443-0.126h-1.082c-0.158-0.079-0.982-0.976-1.081-1.146
			c-1.666-0.01-5.312-0.554-6.743,0.509C52.302,1,52.385,0.26,51.412,0.319C51.166,0.19,51.089,0.029,50.712,0
			c-0.271,0.284-1.155,1.015-1.271,1.337c-0.413,0.004-1.649-0.12-1.972-0.319c-0.287,0.031-0.314,0.082-0.382,0.319
			c-0.135-0.034-0.229-0.058-0.317-0.129h-0.065c0.084,0.154-0.028,0.045,0.128,0.129c-0.124,0.195-0.163,0.101-0.382,0.061
			c-1.001,2.187-3.86,3.675-4.643,6.043C41.515,7.412,40.983,7.4,40.79,7.249c-0.293,0.038-1.311,0.66-1.589,0.83
			c-0.08,1.087,0.134,3.66,0.571,4.388c0.076,0.141,0.092,0.096,0.19,0.19c0.101,0.122-0.172,1.14-0.317,1.209v0.129
			c0.211-0.05,0.423-0.069,0.636-0.064c-0.086-0.102-0.039-0.075-0.19-0.13v-0.126c1.464,0.124,1.176-0.243,1.97-0.827
			c-0.062-0.741,0.338-1.045,0.447-1.779c0.924-0.142,1.354-1.77,2.099-2.292c1.652-1.157,2.265-1.955,3.244-3.561
			c0.252,0.02,0.417,0.094,0.572,0c0.397-0.042,1.028-0.696,1.271-0.955c1.607,0.027,0.46,0.587,1.209,1.083
			c1.922,0.427,3.983,1.463,5.661,0.57c0.095-0.041,0.027-0.079,0.128,0c0.204,0.056,0.097-0.034,0.19,0.129
			c0.047,0.125-0.045,0.229-0.065,0.508c0.998,0.924,1.406,1.937,2.227,2.863c-0.54,0.857-1.511,2.138-2.353,2.672v0.126
			c0.333,0.342,0.752,0.607,1.08,0.955c0.304,0.004,0.411,0.015,0.509-0.19c0.181,0.082,0.236,0.206,0.318,0.38
			c0.459-0.002,0.832-0.056,1.208-0.127v0.064h0.064c-0.026,0.638,0.399,2.835,0.19,3.307c0,0-0.316,0.253-0.318,0.253l-0.19,1.339
			c0.126,0.323,0.286,0.063,0.19,0.634v1.845c0.028,0.083,0.188,0.096,0.128,0.317l-0.128,0.064
			c-0.325,1.294,0.063,3.293,0.063,4.644c-0.802,1.776-4.338,2.733-5.598,4.324c-0.32-0.066-1.753-1.268-1.609-1.168
			c-1.399-0.975-2.173-0.849-3.605-1.25c-2.259-0.626-4.058-1.188-6.555-1.23c-0.14-0.11-0.306-0.155-0.498-0.132
			c0.245-1.03-1.798-0.755-1.212-0.418c-0.012,0.024-0.019,0.05-0.012,0.081c-0.054,0.222,0.829,0.701,0.867,0.712
			c-0.061,0.1-0.071,0.239-0.159,0.29h-0.382c-0.521,0.267-1.196,1.924-1.653,2.418c0.059,0.864-0.024,3.166,0.382,4.007
			c0.106,0.084,0.213,0.171,0.319,0.255c-0.263,0.881-0.699,2.61-1.273,3.371c0.03,0.613,0.658,1.1,1.081,1.336
			c-0.258,1.71,0.676,3.68,2.609,4.197c2.555,0,5.007-0.003,7.377-0.445c1.025,1.208,0.38,3.446,1.335,4.771v0.444
			c-0.151,0.291-0.876,0.656-1.601,0.969c-0.468,0.51-0.982,0.991-1.573,1.356c0.009,0.217,0.012,0.432-0.07,0.665
			c-0.299,0.048-0.604-0.02-0.954-0.064c-0.994,1.069-2.531,2.221-3.425,3.453c-0.059,0.503-0.17,1.003-0.311,1.543
			c-0.199,0.776-0.433,1.987,0.188,2.657c0.456,0.488,1.111,1.281,1.401,2.091c0.13,0.157,0.284,0.291,0.494,0.37h0.445
			c0.314,0.101,0.655,0.411,0.954,0.508h10.114c6.202-2.052,12.051-6.717,16.41-11.513c0.725-0.486,2.817-1.346,4.912-1.954
			c0.025-0.041,0.064-0.079,0.12-0.105c0.396-0.201,0.805-0.367,1.222-0.515c0.313-0.17,0.646-0.305,0.97-0.424
			c0.63-0.232,1.28-0.408,1.911-0.637c0.058-0.023,0.115-0.048,0.174-0.075c0.398-0.172,0.801-0.342,1.208-0.493
			c0.069-0.028,0.141-0.057,0.212-0.084c0.003-0.154,0.026-0.339,0.086-0.418C83.911,43.061,70.449,38.245,69.476,38.99z
			 M47.851,32.248c-0.079,0.007-0.142,0.011-0.195,0.011c-1.268,0.034-3.583-0.563-4.575,0.052
			c-0.266-0.011-0.293-0.042-0.445-0.125c0.005-0.353,0.027-0.957,0.19-1.21c-0.054-0.302-0.142-0.287-0.317-0.444h-0.064v-0.063
			c0.476-0.222,1.321-0.3,1.719-0.637c0.758,0.047,3.362,0.7,4.069,1.081C48.074,31.342,48.003,31.848,47.851,32.248z"/>
		<path fill-rule="evenodd" clip-rule="evenodd" fill="#073D77" d="M70.528,40.759c-0.022-0.132-0.016-0.122-0.063-0.19
			c-0.068-0.048-0.059-0.039-0.19-0.063c0,0.021,0,0.042,0,0.063c-0.02,0-0.042,0-0.063,0c0.039,0.111,0.013,0.06,0.063,0.127
			c0,0.021,0,0.042,0,0.063C70.359,40.759,70.445,40.759,70.528,40.759z"/>
		<path fill-rule="evenodd" clip-rule="evenodd" fill="#073D77" d="M47.186,55.324c0,0.065,0,0.127,0,0.19
			c0.042,0.022,0.084,0.042,0.126,0.066c0.058,0.067-0.004,0.003,0.063,0.063c0-0.043,0-0.088,0-0.13
			C47.29,55.451,47.262,55.394,47.186,55.324z"/>
		<path fill-rule="evenodd" clip-rule="evenodd" fill="#073D77" d="M44.356,24.71c-0.014,0.007-0.027,0.014-0.041,0.021
			c-0.026-0.014-0.054-0.017-0.084-0.007c-0.004,0.002-0.011,0.002-0.015,0.006c-0.033-0.013-0.068-0.006-0.098,0.025
			c-0.003,0.002-0.004,0.006-0.007,0.008c-0.114,0.037-0.228,0.069-0.343,0.099c-0.023-0.021-0.052-0.03-0.086-0.021
			c-0.427,0.108-0.853,0.223-1.27,0.38c-0.136,0.051-0.068,0.352,0.072,0.322c0.05-0.011,0.101-0.023,0.151-0.033
			c0.024,0.034,0.059,0.058,0.102,0.058c0.024,0.031,0.057,0.049,0.098,0.042l0.379-0.044c0.072,0,0.145-0.004,0.216-0.014
			c0.015,0.015,0.032,0.027,0.051,0.032c0.115,0.032,0.227,0.035,0.335,0.02c0.024,0.008,0.047,0.005,0.073-0.012
			c0.141-0.03,0.276-0.089,0.411-0.161c0.051-0.029,0.077-0.107,0.071-0.18c0.034-0.025,0.066-0.052,0.099-0.082
			c0.057-0.048,0.06-0.124,0.035-0.189C44.58,24.858,44.489,24.644,44.356,24.71z"/>
	</g>
</g>
<g>
	<g>
		<path fill="#073D77" d="M0,81.124c0-4.829,3.413-8.741,8.652-8.741c4.11,0,7.219,2.718,7.219,7.413
			c0,3.393-2.26,8.501-8.436,8.501C2.695,88.297,0,84.949,0,81.124z M13.762,79.905c0-3.892-2.564-5.914-5.413-5.914
			c-3.891,0-6.262,3.087-6.262,6.807c0,3.238,2.132,5.892,5.544,5.892C10.893,86.689,13.762,84.188,13.762,79.905z"/>
		<path fill="#073D77" d="M20.221,78.383c0-0.455-0.022-5.045-0.11-5.653c1.239,0,3.652-0.021,5.546,0.218
			c7.087,0.893,7.956,4.045,7.956,5.567c0,6.74-8.566,9.544-13.523,9.544c0.088-1,0.131-6.392,0.131-6.979V78.383z M22.178,86.146
			c5.934-0.522,9.304-4.022,9.304-7.066c0-3.304-3.675-4.783-9.304-4.719V86.146z"/>
		<path fill="#073D77" d="M40.877,87.95c0.02-0.5,0.106-2.805,0.106-3.088v-1.631c0-2.827-1.326-5.109-2.804-6.74
			c-0.868-0.979-2.022-1.913-3.197-2.413l0.891-1.695c1.395,0.717,2.827,1.913,3.394,2.544c1.021,1.174,2.347,2.869,2.825,4.675
			h0.044c0.631-1.806,1.456-3.065,2.63-4.393c0.958-1.065,2.827-2.392,4.175-2.826l0.652,1.695
			c-1.391,0.414-2.936,1.414-4.152,2.826c-1.478,1.696-2.502,4.023-2.502,6.327v2.044c0,0.304,0.066,2.239,0.11,2.675H40.877z"/>
		<path fill="#073D77" d="M51.963,86.71c2.132-0.435,4.85-1.521,4.85-3.282c0-1.087-0.698-1.652-2.262-2.5
			c-1.848-1-3.131-1.913-3.131-3.458c0-2.305,3.219-4.458,6.197-5.131l0.456,1.675c-1.326,0.217-4.543,1.26-4.543,3.087
			c0,1.13,1.544,1.825,2.457,2.369c1.652,0.979,2.979,1.675,2.979,3.436c0,2.132-2.26,4.457-6.436,5.437L51.963,86.71z"/>
		<path fill="#073D77" d="M63.424,86.71c2.129-0.435,4.847-1.521,4.847-3.282c0-1.087-0.695-1.652-2.262-2.5
			c-1.848-1-3.13-1.913-3.13-3.458c0-2.305,3.218-4.458,6.197-5.131l0.457,1.675c-1.329,0.217-4.545,1.26-4.545,3.087
			c0,1.13,1.543,1.825,2.456,2.369c1.652,0.979,2.979,1.675,2.979,3.436c0,2.132-2.262,4.457-6.436,5.437L63.424,86.71z"/>
		<path fill="#073D77" d="M82.795,88.167c-0.349,0-6.893-0.217-7.328-0.217c0.066-1.152,0.066-5.806,0.066-6.306v-2.913
			c0-0.349-0.045-5.588-0.066-6.002c0.522,0,6.197-0.326,6.894-0.412l0.086,1.719c-0.694,0-4.608,0.107-4.957,0.107v5.522
			c0.391,0,3.175-0.108,4.239-0.239l0.065,1.718c-0.478,0-3.87-0.088-4.305-0.088v5.306c0.522,0,3.435,0.065,5.218-0.064
			L82.795,88.167z"/>
		<path fill="#073D77" d="M89.121,77.883c0,3.523,0.153,5.131,1.002,6.632c0.847,1.479,2.195,2.109,3.759,2.109
			c1.871,0,3.065-0.935,3.784-2.065c1.045-1.631,1.066-4.284,1.066-7.697v-0.761c0-1.5-0.088-2.783-0.13-3.588h2.065
			c0,0.479,0.021,1.914,0.021,3.631v1.001c0,4.174-0.24,6.827-1.871,8.849c-1.282,1.565-2.912,2.304-5.217,2.304
			c-1.175,0-3.545-0.174-5.067-2.586c-1.021-1.632-1.391-3.327-1.391-8.61v-1.175c0-0.999,0.021-2.588,0.021-3.088h2.063
			c-0.042,0.567-0.107,1.589-0.107,3.567V77.883z"/>
		<path fill="#073D77" d="M105.473,86.71c2.129-0.435,4.847-1.521,4.847-3.282c0-1.087-0.694-1.652-2.258-2.5
			c-1.851-1-3.133-1.913-3.133-3.458c0-2.305,3.217-4.458,6.197-5.131l0.456,1.675c-1.325,0.217-4.545,1.26-4.545,3.087
			c0,1.13,1.543,1.825,2.458,2.369c1.652,0.979,2.978,1.675,2.978,3.436c0,2.132-2.262,4.457-6.436,5.437L105.473,86.71z"/>
	</g>
	<g>
		<path fill="#073D77" d="M1.336,94.564c0-0.235-0.011-2.594-0.056-2.906c0.637,0,1.878-0.011,2.851,0.112
			c3.645,0.457,4.09,2.078,4.09,2.861c0,3.465-4.403,4.907-6.953,4.907c0.045-0.514,0.068-3.286,0.068-3.588V94.564z M2.344,98.555
			c3.05-0.268,4.783-2.067,4.783-3.633c0-1.699-1.89-2.458-4.783-2.426V98.555z"/>
		<path fill="#073D77" d="M8.447,99.114c0.615-1.073,3.834-7.422,4.101-7.847h0.024c0.981,1.586,3.633,6.629,4.391,7.791
			l-0.948,0.625c-0.224-0.424-1.41-2.717-1.533-2.895l-3.879,0.157c-0.133,0.211-1.051,2.369-1.241,2.748L8.447,99.114z
			 M14.146,96.074c-0.122-0.246-1.498-2.852-1.609-3.03c-0.167,0.247-1.453,2.985-1.554,3.164L14.146,96.074z"/>
		<path fill="#073D77" d="M19.557,99.482c0.057-0.291,0.066-3.554,0.066-5.331v-1.667c-1.285,0-2.872,0.058-3.162,0.101v-0.949
			c0.447,0.089,3.096,0.135,3.219,0.135h0.973c0.211,0,2.648-0.046,3.141-0.135v0.949c-0.157-0.043-2.224-0.101-3.165-0.101v1.845
			c0,2.271,0.112,4.931,0.136,5.153H19.557z"/>
		<path fill="#073D77" d="M23.425,99.114c0.616-1.073,3.835-7.422,4.103-7.847h0.022c0.983,1.586,3.633,6.629,4.393,7.791
			l-0.95,0.625c-0.224-0.424-1.409-2.717-1.531-2.895l-3.879,0.157c-0.134,0.211-1.051,2.369-1.241,2.748L23.425,99.114z
			 M29.127,96.074c-0.124-0.246-1.498-2.852-1.609-3.03c-0.168,0.247-1.453,2.985-1.555,3.164L29.127,96.074z"/>
		<path fill="#073D77" d="M36.84,98.846c1.095-0.224,2.493-0.782,2.493-1.688c0-0.558-0.358-0.85-1.164-1.284
			c-0.948-0.515-1.606-0.984-1.606-1.778c0-1.185,1.652-2.291,3.185-2.637l0.234,0.86c-0.683,0.112-2.336,0.647-2.336,1.587
			c0,0.581,0.793,0.938,1.262,1.219c0.85,0.503,1.533,0.86,1.533,1.767c0,1.094-1.163,2.29-3.31,2.793L36.84,98.846z"/>
		<path fill="#073D77" d="M46.799,99.595c-0.178,0-3.542-0.112-3.767-0.112c0.035-0.593,0.035-2.985,0.035-3.241v-1.498
			c0-0.179-0.024-2.872-0.035-3.085c0.267,0,3.186-0.167,3.544-0.212l0.045,0.882c-0.359,0-2.371,0.056-2.549,0.056v2.84
			c0.2,0,1.631-0.056,2.179-0.122l0.035,0.883c-0.246,0-1.99-0.045-2.214-0.045v2.727c0.269,0,1.767,0.034,2.682-0.033
			L46.799,99.595z"/>
		<path fill="#073D77" d="M50.486,96.063c0,0.425,0.037,3.253,0.058,3.42H49.46c0.045-0.269,0.021-3.813,0.021-4.046V94.52
			c0-0.335-0.021-2.648-0.054-2.861c0.525,0,1.464,0.011,2.325,0.112c1.475,0.178,2.313,0.805,2.313,1.754
			c0,0.951-0.637,1.688-1.554,2.27c0.28,0.381,2.291,2.872,2.605,3.208l-0.85,0.682c-0.122-0.155-2.638-3.453-2.973-3.923
			c0.559-0.302,1.676-0.984,1.676-2.079c0-0.502-0.368-1.251-2.482-1.274V96.063z"/>
		<path fill="#073D77" d="M63.78,92.017c-0.393,0.581-3.802,7.064-4.204,7.835h-0.022c-0.234-0.346-3.511-7.322-3.846-7.835
			l0.963-0.538c0.178,0.505,2.783,5.971,3.004,6.316c0.19-0.268,3.054-5.959,3.187-6.316L63.78,92.017z"/>
		<path fill="#073D77" d="M66.441,96.107c0,1.116,0.032,3.117,0.043,3.375H65.4c0.022-0.492,0.034-3.106,0.034-3.396v-1.208
			c0-0.19-0.034-2.952-0.057-3.22h1.119c-0.023,0.201-0.056,1.899-0.056,3.242V96.107z"/>
		<path fill="#073D77" d="M74.96,99.55c-0.338,0.067-0.852,0.112-1.522,0.112c-3.811,0-4.762-2.281-4.762-3.309
			c0-1.834,1.688-4.169,5.635-4.875l0.166,0.939c-2.559,0.292-4.672,1.822-4.672,3.745c0,1.364,1.072,2.649,3.745,2.649
			c0.447,0,0.918-0.068,1.297-0.157L74.96,99.55z"/>
		<path fill="#073D77" d="M80.794,99.595c-0.179,0-3.545-0.112-3.769-0.112c0.033-0.593,0.033-2.985,0.033-3.241v-1.498
			c0-0.179-0.021-2.872-0.033-3.085c0.269,0,3.186-0.167,3.545-0.212l0.045,0.882c-0.358,0-2.37,0.056-2.549,0.056v2.84
			c0.2,0,1.632-0.056,2.179-0.122l0.033,0.883c-0.245,0-1.99-0.045-2.212-0.045v2.727c0.267,0,1.766,0.034,2.683-0.033
			L80.794,99.595z"/>
		<path fill="#073D77" d="M83.141,98.846c1.097-0.224,2.493-0.782,2.493-1.688c0-0.558-0.357-0.85-1.164-1.284
			c-0.948-0.515-1.608-0.984-1.608-1.778c0-1.185,1.653-2.291,3.186-2.637l0.234,0.86c-0.682,0.112-2.336,0.647-2.336,1.587
			c0,0.581,0.793,0.938,1.263,1.219c0.85,0.503,1.532,0.86,1.532,1.767c0,1.094-1.162,2.29-3.31,2.793L83.141,98.846z"/>
		<path fill="#073D77" d="M93.726,96.107c0,1.116,0.034,3.117,0.045,3.375h-1.084c0.022-0.492,0.033-3.106,0.033-3.396v-1.208
			c0-0.19-0.033-2.952-0.055-3.22h1.117c-0.022,0.201-0.057,1.899-0.057,3.242V96.107z"/>
		<path fill="#073D77" d="M96.712,99.482c0.055-0.838,0.356-7.119,0.414-8.271h0.021c0.313,0.357,5.723,5.979,6.082,6.337
			c0-0.313,0.065-5.578,0.078-5.946l1.039,0.056c-0.046,0.67-0.257,5.243-0.303,8.059h-0.021c-0.304-0.301-5.959-6.104-6.16-6.381
			h-0.021c0,0.39-0.091,5.855-0.079,6.226L96.712,99.482z"/>
		<path fill="#073D77" d="M112.473,99.55c-0.335,0.067-0.849,0.112-1.521,0.112c-3.811,0-4.761-2.281-4.761-3.309
			c0-1.834,1.688-4.169,5.634-4.875l0.167,0.939c-2.561,0.292-4.671,1.822-4.671,3.745c0,1.364,1.072,2.649,3.744,2.649
			c0.447,0,0.915-0.068,1.296-0.157L112.473,99.55z"/>
	</g>
</g>
</svg>
