<svg xmlns="http://www.w3.org/2000/svg" width="64" height="64" viewBox="0 0 64 64"><defs><style>.a{opacity:0.64;}.b{fill:#fff;opacity:0;}.c{fill:#647a35;}</style></defs><g class="a" transform="translate(-427 -281)"><rect class="b" width="64" height="64" transform="translate(427 281)"/><g transform="translate(426 280)"><path class="c" d="M21.921,43.34a6.941,6.941,0,0,0,4.868,0c5.919-2.232,8.921-4.515,8.921-6.785,0-3.154-2-14.169-2.081-14.636l-.155-.847h-2.3a11.221,11.221,0,0,1-6.246-1.891l-.572-.382-.573.382a11.22,11.22,0,0,1-6.245,1.891h-2.3l-.154.847C15,22.386,13,33.4,13,36.555c0,2.27,3,4.553,8.921,6.785Zm-4.96-20.2h.575a13.265,13.265,0,0,0,6.818-1.877,13.277,13.277,0,0,0,6.819,1.877h.575c.475,2.68,1.9,10.933,1.9,13.419,0,.96-2.373,2.888-7.585,4.854a4.91,4.91,0,0,1-3.412,0c-5.211-1.965-7.584-3.894-7.584-4.854,0-2.487,1.422-10.74,1.9-13.419Z" transform="translate(0.387 0.574)"/><path class="c" d="M20.591,47.4a11.07,11.07,0,0,0,7.783,0c7.909-2.98,11.593-6.365,11.593-10.649,0-3.391-1.789-13.4-2.148-15.374l-.77-4.238h-2.6a12.979,12.979,0,0,1-9.239-3.827l-.73-.73-.73.73a12.979,12.979,0,0,1-9.239,3.827h-2.6l-.771,4.238C10.789,23.353,9,33.364,9,36.755,9,41.039,12.683,44.423,20.591,47.4ZM13.179,21.749l.462-2.542h.874a15.02,15.02,0,0,0,9.969-3.747,15.016,15.016,0,0,0,9.969,3.747h.874l.462,2.542c.974,5.366,2.114,12.514,2.114,15.006,0,3.309-3.259,6.08-10.258,8.717a9.054,9.054,0,0,1-6.327,0c-7-2.636-10.254-5.407-10.254-8.716,0-2.492,1.14-9.64,2.114-15.006Z" transform="translate(0.258 0.374)"/><path class="c" d="M21.1,37.387H27.29v-3.1h3.1V28.1h-3.1V25H21.1v3.1H18V34.29h3.1Zm-1.032-5.161V30.161h3.1v-3.1h2.065v3.1h3.1v2.065h-3.1v3.1H23.161v-3.1Z" transform="translate(0.548 0.774)"/><path class="c" d="M9,49h2.065v2.065H9Z" transform="translate(0.258 1.548)"/><path class="c" d="M13,49H39.839v2.065H13Z" transform="translate(0.387 1.548)"/><path class="c" d="M9,53H39.968v2.065H9Z" transform="translate(0.258 1.677)"/><path class="c" d="M17,5h2.065V7.065H17Z" transform="translate(0.516 0.129)"/><path class="c" d="M29,5h2.065V7.065H29Z" transform="translate(0.903 0.129)"/><path class="c" d="M65,33A17.555,17.555,0,0,0,48.484,15.5V8.226a5.167,5.167,0,0,0-5.161-5.161H35.907A3.093,3.093,0,0,0,33,1H16.484a3.093,3.093,0,0,0-2.907,2.065H6.161A5.167,5.167,0,0,0,1,8.226V59.839A5.167,5.167,0,0,0,6.161,65H43.323a5.167,5.167,0,0,0,5.161-5.161V50.5A17.555,17.555,0,0,0,65,33ZM13.577,9.258a3.093,3.093,0,0,0,2.907,2.065H33a3.093,3.093,0,0,0,2.907-2.065H42.29V58.806H7.194V9.258ZM15.452,4.1a1.034,1.034,0,0,1,1.032-1.032H33A1.034,1.034,0,0,1,34.032,4.1V8.226A1.034,1.034,0,0,1,33,9.258H16.484a1.034,1.034,0,0,1-1.032-1.032ZM46.419,59.839a3.1,3.1,0,0,1-3.1,3.1H6.161a3.1,3.1,0,0,1-3.1-3.1V8.226a3.1,3.1,0,0,1,3.1-3.1h7.226V7.194H7.194A2.067,2.067,0,0,0,5.129,9.258V58.806a2.067,2.067,0,0,0,2.065,2.065h35.1a2.067,2.067,0,0,0,2.065-2.065V9.258A2.067,2.067,0,0,0,42.29,7.194H36.1V5.129h7.226a3.1,3.1,0,0,1,3.1,3.1ZM48.484,48.3V42.29h4.693C52.046,45.452,50.373,47.689,48.484,48.3Zm0-8.073V34.032h6.169a29.277,29.277,0,0,1-.842,6.194ZM53.177,23.71H48.484V17.7C50.373,18.311,52.046,20.548,53.177,23.71Zm.633,2.065a29.278,29.278,0,0,1,.842,6.194H48.484V25.774Zm9.074,6.194H56.715a31.4,31.4,0,0,0-.776-6.194h5.2a15.358,15.358,0,0,1,1.748,6.194Zm-6.168,2.065h6.168a15.358,15.358,0,0,1-1.748,6.194h-5.2A31.4,31.4,0,0,0,56.715,34.032ZM59.809,23.71H55.363a17.192,17.192,0,0,0-2.649-5.253A15.524,15.524,0,0,1,59.809,23.71ZM52.714,47.543a17.192,17.192,0,0,0,2.649-5.253H59.81a15.532,15.532,0,0,1-7.1,5.253Z"/></g></g></svg>