<svg xmlns="http://www.w3.org/2000/svg" width="64" height="64" viewBox="0 0 64 64"><defs><style>.a{opacity:0.64;}.b{fill:#fff;opacity:0;}.c{fill:#647a35;}</style></defs><g class="a" transform="translate(-427 -281)"><rect class="b" width="64" height="64" transform="translate(427 281)"/><g transform="translate(427 281)"><g transform="translate(0 0)"><path class="c" d="M62.617,13.253,48.835.332A1.228,1.228,0,0,0,47.993,0H31.011A1.231,1.231,0,0,0,29.78,1.231V2.461H23.627A1.231,1.231,0,0,0,22.4,3.692v.548L6.095,5.907H1.231A1.18,1.18,0,0,0,0,7.076V12A1.285,1.285,0,0,0,1.231,13.29H6.095l16.3,1.544v.548a1.231,1.231,0,0,0,1.231,1.231H29.78V30.519H25.473a1.191,1.191,0,0,0-1.12,1.694L27.429,39a1.252,1.252,0,0,0,1.12.745H29.78V61.776a1.231,1.231,0,0,0,1.231,1.231H61.775a1.231,1.231,0,0,0,1.231-1.231V51.867a1.231,1.231,0,1,0-2.461,0v8.678h-28.3V2.461H47.506L60.545,14.685V40.791a1.231,1.231,0,1,0,2.461,0V14.152a1.238,1.238,0,0,0-.389-.9ZM4.922,10.829H2.461V8.368H4.922Zm12.552,1.042L7.384,10.882V8.192L17.474,7.2Zm4.922.49-2.461-.246V6.959L22.4,6.713ZM29.78,37.287h-.438L27.384,32.98h2.4Zm0-23.135H24.858V4.922H29.78Z" transform="translate(0 0)"/><circle class="c" cx="1.231" cy="1.231" r="1.231" transform="translate(60.545 45.098)"/><path class="c" d="M305.381,146.075v-9.845A1.231,1.231,0,0,0,304.151,135h-20.92A1.231,1.231,0,0,0,282,136.231v9.845a1.231,1.231,0,0,0,1.231,1.231h20.92A1.231,1.231,0,0,0,305.381,146.075Zm-2.461-1.231H284.461v-7.384H302.92Z" transform="translate(-247.297 -118.387)"/><circle class="c" cx="1" cy="1" r="1" transform="translate(40 22)"/><ellipse class="c" cx="1.5" cy="1" rx="1.5" ry="1" transform="translate(45 22)"/><circle class="c" cx="1" cy="1" r="1" transform="translate(51 22)"/><path class="c" d="M298.231,255A1.231,1.231,0,0,0,297,256.231v4.922a1.231,1.231,0,0,0,1.231,1.231h6.153a1.231,1.231,0,0,0,1.231-1.231v-4.922A1.231,1.231,0,0,0,304.384,255Zm4.922,4.922h-3.692v-2.461h3.692Z" transform="translate(-260.452 -223.62)"/><path class="c" d="M388.231,255A1.231,1.231,0,0,0,387,256.231v4.922a1.231,1.231,0,0,0,1.231,1.231h6.153a1.231,1.231,0,0,0,1.231-1.231v-4.922A1.231,1.231,0,0,0,394.384,255Zm4.922,4.922h-3.692v-2.461h3.692Z" transform="translate(-339.376 -223.62)"/></g></g></g></svg>