<svg xmlns="http://www.w3.org/2000/svg" width="64" height="64" viewBox="0 0 64 64"><defs><style>.a{opacity:0.64;}.b{fill:#fff;opacity:0;}.c{fill:#647a35;}</style></defs><g class="a" transform="translate(-427 -281)"><rect class="b" width="64" height="64" transform="translate(427 281)"/><g transform="translate(428.004 281)"><path class="c" d="M59.667,55.467V11.582a4.267,4.267,0,0,0,3.2-4.115v-3.2A4.267,4.267,0,0,0,58.6,0H43.667A4.267,4.267,0,0,0,39.4,4.267v3.2a4.267,4.267,0,0,0,3.2,4.115V22.874a53.063,53.063,0,0,0-9.977-10.526,2.832,2.832,0,0,0-3.5-.014A53.158,53.158,0,0,0,20.484,21,30.86,30.86,0,0,0,12.995,12.2a2.124,2.124,0,0,0-2.638-.005C8.473,13.67-.79,21.5,1.3,30.317a10.631,10.631,0,0,0,12.518,7.854,17.707,17.707,0,0,0,.458,3.413,16.993,16.993,0,0,0,13.71,12.581,17.718,17.718,0,0,0,2.846.235,17.162,17.162,0,0,0,11.138-4.071c.222-.189.419-.4.629-.6v5.735a8.533,8.533,0,1,0,17.067,0Zm-18.133-48v-3.2a2.133,2.133,0,0,1,2.133-2.133H58.6a2.133,2.133,0,0,1,2.133,2.133v3.2A2.133,2.133,0,0,1,58.6,9.6H43.667A2.133,2.133,0,0,1,41.534,7.467Zm3.2,4.267h12.8v3.2H53.267a1.067,1.067,0,0,0,0,2.133h4.267v3.2H53.267a1.067,1.067,0,0,0,0,2.133h4.267v3.2H53.267a1.067,1.067,0,0,0,0,2.133h4.267v3.2H53.267a1.067,1.067,0,0,0,0,2.133h4.267v3.2H47.893a24.231,24.231,0,0,0-3.159-9.989ZM10.211,36.15a8.486,8.486,0,0,1-6.834-6.325c-1.829-7.717,7.253-15.137,8.29-15.953.874.688,8.533,6.923,8.533,13.867a8.526,8.526,0,0,1-5.653,8.033l-.03.011a8.622,8.622,0,0,1-4.306.368ZM40.589,48.7A15.111,15.111,0,0,1,28.329,52.06,14.833,14.833,0,0,1,16.354,41.091a15.311,15.311,0,0,1-.41-3.594,10.611,10.611,0,0,0,6.389-9.764,13.12,13.12,0,0,0-.86-4.518,50.453,50.453,0,0,1,8.96-9.2.715.715,0,0,1,.874.013A48.656,48.656,0,0,1,42.683,26.943,21.6,21.6,0,0,1,45.8,37.475,14.72,14.72,0,0,1,40.589,48.7Zm4.145,6.764V47.313a16.788,16.788,0,0,0,3.15-8.913h9.65v3.2H53.267a1.067,1.067,0,0,0,0,2.133h4.267v3.2H53.267a1.067,1.067,0,1,0,0,2.133h4.267v6.4a6.4,6.4,0,0,1-12.8,0Z" transform="translate(-1)"/><path class="c" d="M10.626,30.19a4.179,4.179,0,0,1-3.375-3.1,1.067,1.067,0,1,0-2.075.492,6.329,6.329,0,0,0,5.1,4.711.96.96,0,0,0,.174.015,1.067,1.067,0,0,0,.172-2.119Z" transform="translate(-0.724 1.749)"/><path class="c" d="M27.922,45.4a10.494,10.494,0,0,1-8.5-7.758,1.067,1.067,0,0,0-2.075.5A12.654,12.654,0,0,0,27.578,47.5a1.048,1.048,0,0,0,.173.014,1.067,1.067,0,0,0,.171-2.121Z" transform="translate(0.088 2.456)"/><path class="c" d="M49.333,55.267A1.067,1.067,0,0,0,48.267,54.2a2.011,2.011,0,0,1-2.133-2.14A1.067,1.067,0,0,0,44,52.067a4.147,4.147,0,0,0,4.267,4.267A1.067,1.067,0,0,0,49.333,55.267Z" transform="translate(1.867 3.4)"/></g></g></svg>