<svg xmlns="http://www.w3.org/2000/svg" width="11.749" height="15.636" viewBox="0 0 11.749 15.636"><g transform="translate(0)"><path d="M71.941,182.438H69.525a.188.188,0,0,1,0-.377h2.416a.188.188,0,1,1,0,.377Z" transform="translate(-67.882 -170.172)"/><path d="M132.163,182.438h-2.416a.188.188,0,1,1,0-.377h2.416a.188.188,0,1,1,0,.377Z" transform="translate(-123.567 -170.172)"/><g transform="translate(0 0)"><path d="M60.3,56.265V43.736a.188.188,0,0,0-.188-.188H58.153a.188.188,0,0,0,0,.377H59.92V56.077H50.4V43.925h1.737a.188.188,0,0,0,0-.377H50.211a.188.188,0,0,0-.188.188V56.265a.188.188,0,0,0,.188.188h9.9A.188.188,0,0,0,60.3,56.265Z" transform="translate(-50.023 -42.094)"/><path d="M78.808,52.408a.188.188,0,1,0-.376.025l.81,12.314-9.5.625-.029-.442a.19.19,0,0,0-.2-.176.188.188,0,0,0-.176.2l.041.63a.188.188,0,0,0,.188.176h.012l9.876-.65a.188.188,0,0,0,.176-.2Z" transform="translate(-67.882 -50.124)"/><path d="M76.478,105.109H69.525a.188.188,0,0,0,0,.377h6.953a.188.188,0,1,0,0-.377Z" transform="translate(-67.882 -99.018)"/><path d="M76.478,123.176H69.525a.188.188,0,0,0,0,.377h6.953a.188.188,0,1,0,0-.377Z" transform="translate(-67.882 -115.724)"/><path d="M76.478,141.243H69.525a.188.188,0,1,0,0,.377h6.953a.188.188,0,1,0,0-.377Z" transform="translate(-67.882 -132.429)"/><path d="M84.067,28.889l-.229.812a.188.188,0,0,0,.256.224l1.072-.466a2.643,2.643,0,1,0-1.1-.57Zm1.73-4.259a2.264,2.264,0,1,1-.6,4.448.188.188,0,0,0-.125.009l-.768.334.155-.548a.188.188,0,0,0-.065-.2,2.264,2.264,0,0,1,1.4-4.044Z" transform="translate(-80.66 -24.254)"/></g><g transform="translate(3.218 2.052)"><path d="M93.272,52.557a.535.535,0,1,1,.535-.535A.535.535,0,0,1,93.272,52.557Zm0-.692a.158.158,0,1,0,.158.158A.158.158,0,0,0,93.272,51.865Z" transform="translate(-92.737 -51.488)"/><path d="M111.65,52.557a.535.535,0,1,1,.535-.535A.535.535,0,0,1,111.65,52.557Zm0-.692a.158.158,0,1,0,.158.158A.158.158,0,0,0,111.65,51.865Z" transform="translate(-109.73 -51.488)"/><path d="M130.028,52.557a.535.535,0,1,1,.535-.535A.535.535,0,0,1,130.028,52.557Zm0-.692a.158.158,0,1,0,.158.158A.158.158,0,0,0,130.028,51.865Z" transform="translate(-126.724 -51.488)"/></g></g></svg>