<svg xmlns="http://www.w3.org/2000/svg" width="64" height="64" viewBox="0 0 64 64"><defs><style>.a{opacity:0.64;}.b{fill:#fff;opacity:0;}.c{fill:#647a35;}</style></defs><g class="a" transform="translate(-427 -281)"><rect class="b" width="64" height="64" transform="translate(427 281)"/><g transform="translate(436 281)"><path class="c" d="M1.067,64H41.6a1.067,1.067,0,0,0,1.067-1.067V48.408C43.7,47.2,46.933,42.821,46.933,35.2s-3.234-12-4.267-13.208V18.133A1.067,1.067,0,0,0,41.6,17.067H33.508l6.712-6.712a1.066,1.066,0,0,0,0-1.508l-.312-.312,2.446-2.446a1.066,1.066,0,0,0,0-1.508L38.087.312a1.066,1.066,0,0,0-1.508,0L34.133,2.758l-.312-.312a1.066,1.066,0,0,0-1.508,0L15.246,19.512a1.066,1.066,0,0,0,0,1.508l.313.313-3.512,3.512a1.066,1.066,0,0,0,0,1.508l4.267,4.267a1.066,1.066,0,0,0,1.508,0l3.512-3.512.313.313a1.066,1.066,0,0,0,1.508,0l2.709-2.709a5.279,5.279,0,0,0,7.113-1.168c1.372.719,6.49,3.921,6.49,11.657,0,7.014-5.55,10.982-6.707,11.733H27.733V39.467A1.067,1.067,0,0,0,26.667,38.4H7.467A1.067,1.067,0,0,0,6.4,39.467v4.267A1.067,1.067,0,0,0,7.467,44.8H21.333v2.133h-3.2A1.067,1.067,0,0,0,17.067,48v7.467H5.333A5.34,5.34,0,0,0,0,60.8v2.133A1.067,1.067,0,0,0,1.067,64ZM37.333,2.575l2.758,2.758L38.4,7.025,35.642,4.267ZM17.067,28.358,14.308,25.6l2.758-2.758L19.825,25.6ZM28.8,23.467a3.2,3.2,0,1,1,3.2-3.2A3.2,3.2,0,0,1,28.8,23.467Zm2.936-7.645A5.325,5.325,0,0,0,24.355,23.2L22.4,25.158l-4.892-4.892L33.067,4.708,37.958,9.6Zm2.289,5.511a5.331,5.331,0,0,0,0-2.133h6.508v2.133ZM41.6,35.2a15.029,15.029,0,0,0-5.035-11.733h4.553A18.571,18.571,0,0,1,44.8,35.2a18.574,18.574,0,0,1-3.682,11.733h-4.9A15.853,15.853,0,0,0,41.6,35.2ZM8.533,42.667V40.533H25.6v2.133ZM25.6,44.8v7.467a1.067,1.067,0,1,1-2.133,0V44.8Zm-6.4,4.267h2.133v3.2a3.2,3.2,0,1,0,6.4,0v-3.2h12.8v6.4H19.2ZM2.133,60.8a3.2,3.2,0,0,1,3.2-3.2h35.2v4.267H2.133Zm0,0" transform="translate(0 0)"/><path class="c" d="M272,384h2.133v2.133H272Zm0,0" transform="translate(-235.733 -332.8)"/><path class="c" d="M240,384h2.133v2.133H240Zm0,0" transform="translate(-208 -332.8)"/></g></g></svg>