<svg xmlns="http://www.w3.org/2000/svg" width="64" height="64" viewBox="0 0 64 64"><defs><style>.a{opacity:0.64;}.b{fill:#fff;opacity:0;}.c{fill:#647a35;}</style></defs><g class="a" transform="translate(-427 -281)"><rect class="b" width="64" height="64" transform="translate(427 281)"/><g transform="translate(427 280.5)"><path class="c" d="M170.494,236.854a3.232,3.232,0,0,0,3.228-3.228c0-.336,0-1.36-2.04-4.508a1.416,1.416,0,0,0-2.376,0c-2.04,3.148-2.04,4.172-2.04,4.508A3.232,3.232,0,0,0,170.494,236.854Zm0-4.851a6.39,6.39,0,0,1,.72,1.633.72.72,0,0,1-1.44,0A6.39,6.39,0,0,1,170.494,232Zm0,0" transform="translate(-146.357 -199.476)"/><path class="c" d="M207.665,282.249a4.471,4.471,0,0,0,4.559-4.366,4.557,4.557,0,0,0-.357-1.594,1.274,1.274,0,0,0-.062-.137l-1.759-3.336c-.014-.025-.028-.05-.042-.074-.378-.611-.657-1-.882-1.321-.07-.1-.135-.19-.2-.28a1.534,1.534,0,0,0-2.521,0c-2.189,3.181-3.3,5.45-3.3,6.743A4.471,4.471,0,0,0,207.665,282.249Zm.012-8.5c.054.084.111.174.171.271l1.7,3.228a2.11,2.11,0,0,1,.166.63,2.061,2.061,0,0,1-4.1,0A12.99,12.99,0,0,1,207.677,273.754Zm0,0" transform="translate(-177.717 -236.233)"/><path class="c" d="M137.55,304.74a3.828,3.828,0,0,0,3.823-3.824c0-1.1-.873-3-2.594-5.662a1.46,1.46,0,0,0-1.229-.668h0a1.459,1.459,0,0,0-1.229.668c-1.722,2.657-2.595,4.562-2.595,5.662A3.828,3.828,0,0,0,137.55,304.74Zm0-6.7a9.7,9.7,0,0,1,1.315,2.879,1.315,1.315,0,0,1-2.631,0A9.675,9.675,0,0,1,137.55,298.038Zm0,0" transform="translate(-117.011 -257.325)"/><path class="c" d="M63.634,10.72a9.045,9.045,0,0,0-6.1-5.765A8.03,8.03,0,0,0,52.545.715a8.869,8.869,0,0,0-6.2.987,8.868,8.868,0,0,0-6.2-.987,8.028,8.028,0,0,0-4.994,4.24,9.045,9.045,0,0,0-6.1,5.765,8.574,8.574,0,0,0-.245,3.983,3.111,3.111,0,0,0-1.881-.632H23.164A3.129,3.129,0,0,0,20.038,17.2v1.236a21.029,21.029,0,0,0-6.078,2.511l-.87-.87a3.126,3.126,0,0,0-4.42,0L6,22.741a3.124,3.124,0,0,0,0,4.42l.869.87a21.029,21.029,0,0,0-2.511,6.078H3.126A3.13,3.13,0,0,0,0,37.235v3.771a3.13,3.13,0,0,0,3.126,3.126H4.362a21,21,0,0,0,2.511,6.078l-.87.87A3.126,3.126,0,0,0,6,55.5l2.666,2.666a3.126,3.126,0,0,0,4.421,0l.869-.87a21.013,21.013,0,0,0,6.078,2.511v1.237a3.129,3.129,0,0,0,3.126,3.125h3.771a3.129,3.129,0,0,0,3.126-3.125V59.806A21,21,0,0,0,36.138,57.3l.87.87a3.126,3.126,0,0,0,4.42,0L44.094,55.5a3.126,3.126,0,0,0,0-4.421l-.87-.87a21,21,0,0,0,2.511-6.078h1.236A3.13,3.13,0,0,0,50.1,41.005V39.134c.117.008.234.013.351.013a5.243,5.243,0,0,0,.688-.045c.064-.008.129-.018.194-.029a5.115,5.115,0,0,0,3.991-3.733,5.936,5.936,0,0,0,4.129-1.432c1.508-1.419,1.4-3.64,1.161-4.96a7.449,7.449,0,0,0,2.912-3.656c1.028-2.615-.129-5.3-.76-6.459C63.406,17.123,64.606,13.495,63.634,10.72Zm-32.207.829a6.543,6.543,0,0,1,4.78-4.271,1.254,1.254,0,0,0,.917-.678,5.94,5.94,0,0,1,3.63-3.45,6.346,6.346,0,0,1,4.339.727V33.736a2.928,2.928,0,0,1-1,2.2,2.762,2.762,0,0,1-2.209.678l-.109-.017c-1.863-.311-2.175-2.64-2.187-2.732a1.255,1.255,0,0,0-1.483-1.09,4.212,4.212,0,0,1-3.143-.694c-.833-.785-.439-2.778-.237-3.411a1.238,1.238,0,0,0-.07-.981,1.21,1.21,0,0,0-.75-.606,4.509,4.509,0,0,1-2.4-2.709c-.764-1.942.533-4.207.8-4.645a3.1,3.1,0,0,1,3.489-.6,1.254,1.254,0,0,0,1-2.3,5.584,5.584,0,0,0-4.855.126C31.171,14.595,31,12.778,31.428,11.548ZM47.59,41.005a.618.618,0,0,1-.618.618h-2.25a1.254,1.254,0,0,0-1.232,1.02,18.579,18.579,0,0,1-2.9,7.031,1.253,1.253,0,0,0,.149,1.592l1.585,1.585a.617.617,0,0,1,0,.874l-2.666,2.667a.618.618,0,0,1-.874,0L37.2,54.806a1.254,1.254,0,0,0-1.592-.15,18.572,18.572,0,0,1-7.031,2.9,1.254,1.254,0,0,0-1.02,1.232v2.25a.618.618,0,0,1-.618.618H23.164a.618.618,0,0,1-.618-.618v-2.25a1.254,1.254,0,0,0-1.02-1.232,18.572,18.572,0,0,1-7.031-2.9,1.254,1.254,0,0,0-1.592.15l-1.585,1.585a.618.618,0,0,1-.874,0L7.777,53.725a.617.617,0,0,1,0-.874l1.585-1.585a1.254,1.254,0,0,0,.15-1.592,18.572,18.572,0,0,1-2.905-7.031,1.254,1.254,0,0,0-1.232-1.02H3.126a.618.618,0,0,1-.618-.618V37.235a.618.618,0,0,1,.618-.618h2.25A1.255,1.255,0,0,0,6.607,35.6a18.578,18.578,0,0,1,2.9-7.031,1.253,1.253,0,0,0-.15-1.592L7.777,25.387a.618.618,0,0,1,0-.874l2.666-2.666a.617.617,0,0,1,.874,0L12.9,23.433a1.254,1.254,0,0,0,1.592.15,18.58,18.58,0,0,1,7.031-2.905,1.254,1.254,0,0,0,1.02-1.232V17.2a.618.618,0,0,1,.618-.618h3.771a.618.618,0,0,1,.618.618v2.25a1.254,1.254,0,0,0,1.02,1.232c.151.029.338.07.541.117a6.877,6.877,0,0,0,.059,4.5c.039.1.08.194.121.289A14.183,14.183,0,0,0,10.883,38.26a1.255,1.255,0,0,0,1.177,1.327l.076,0a1.254,1.254,0,0,0,1.25-1.179,11.683,11.683,0,0,1,18.592-8.7,4.992,4.992,0,0,0,1.266,4.194,5.347,5.347,0,0,0,2.827,1.329A11.685,11.685,0,0,1,16.1,46.627a1.254,1.254,0,1,0-1.921,1.613A14.192,14.192,0,0,0,39.24,39.12q0-.5-.034-.989a4.636,4.636,0,0,0,2.159.942c.064.011.129.021.193.029a5.258,5.258,0,0,0,.688.045,5.323,5.323,0,0,0,3.5-1.323,5.448,5.448,0,0,0,.6-.617,5.45,5.45,0,0,0,.6.616,5.384,5.384,0,0,0,.643.482Zm13.6-16.631a4.509,4.509,0,0,1-2.4,2.709,1.211,1.211,0,0,0-.75.606,1.238,1.238,0,0,0-.07.981c.168.515.622,2.6-.237,3.411a4.142,4.142,0,0,1-3.143.694,1.254,1.254,0,0,0-1.483,1.091c0,.024-.295,2.417-2.187,2.732l-.11.017a2.75,2.75,0,0,1-1.253-.122,1.239,1.239,0,0,0-.432-.189A2.928,2.928,0,0,1,47.6,33.735V3.878a6.385,6.385,0,0,1,4.324-.732A5.932,5.932,0,0,1,55.57,6.6a1.255,1.255,0,0,0,.923.679,6.559,6.559,0,0,1,4.773,4.27c.428,1.224.259,3.029-.5,5.375a5.581,5.581,0,0,0-4.789-.092,1.254,1.254,0,1,0,1,2.3,3.087,3.087,0,0,1,3.315.44c.016.027.03.055.048.081S62.03,22.235,61.189,24.374Zm0,0" transform="translate(0 0)"/><path class="c" d="M284.458,59.114a1.249,1.249,0,0,0,.286-.033,6.419,6.419,0,0,0,5.021-5.251,1.254,1.254,0,0,0-2.489-.308,3.924,3.924,0,0,1-3.1,3.117,1.254,1.254,0,0,0,.284,2.476Zm0,0" transform="translate(-247.804 -45.431)"/><path class="c" d="M285.188,171.352a9.17,9.17,0,0,0-3.277-1.927,1.254,1.254,0,0,0-.708,2.406,6.163,6.163,0,0,1,4.143,6.835,1.254,1.254,0,0,0,1.111,1.383,1.18,1.18,0,0,0,.138.008,1.255,1.255,0,0,0,1.245-1.118A8.538,8.538,0,0,0,285.188,171.352Zm0,0" transform="translate(-245.264 -147.765)"/><path class="c" d="M411.453,59.082a1.254,1.254,0,1,0,.569-2.442,3.945,3.945,0,0,1-3.1-3.126,1.254,1.254,0,0,0-2.488.317A6.42,6.42,0,0,0,411.453,59.082Zm0,0" transform="translate(-355.62 -45.432)"/><path class="c" d="M407.036,169.424a9.162,9.162,0,0,0-3.277,1.927,8.537,8.537,0,0,0-2.651,7.586,1.254,1.254,0,0,0,1.245,1.118,1.316,1.316,0,0,0,.138-.008,1.254,1.254,0,0,0,1.11-1.383,6.163,6.163,0,0,1,4.142-6.834,1.254,1.254,0,0,0-.707-2.406Zm0,0" transform="translate(-350.91 -147.764)"/><path class="c" d="M317.556,149.093a1.254,1.254,0,0,0-.692,1.633l.009.022a1.254,1.254,0,1,0,2.325-.941l-.009-.022A1.253,1.253,0,0,0,317.556,149.093Zm0,0" transform="translate(-277.176 -129.938)"/><path class="c" d="M94.318,333.677l-.009-.022a1.254,1.254,0,0,0-2.324.942l.009.022a1.254,1.254,0,1,0,2.324-.942Zm0,0" transform="translate(-80.406 -290.825)"/></g></g></svg>